<svg width="28" height="29" viewBox="0 0 28 29" fill="none" xmlns="http://www.w3.org/2000/svg">
<path fill-rule="evenodd" clip-rule="evenodd" d="M14 0.5C6.26801 0.5 0 6.76801 0 14.5C0 22.232 6.26801 28.5 14 28.5C21.732 28.5 28 22.232 28 14.5C28 6.76801 21.732 0.5 14 0.5ZM10.9219 7.07844C11.7184 7.0422 11.9729 7.03333 14.0007 7.03333H13.9984C16.0268 7.03333 16.2804 7.0422 17.0768 7.07844C17.8717 7.11484 18.4146 7.24069 18.8906 7.42534C19.3822 7.61589 19.7975 7.87101 20.2129 8.28635C20.6282 8.70137 20.8833 9.11795 21.0747 9.60905C21.2582 10.0838 21.3842 10.6264 21.4216 11.4213C21.4573 12.2177 21.4667 12.4722 21.4667 14.5001C21.4667 16.5279 21.4573 16.7818 21.4216 17.5782C21.3842 18.3728 21.2582 18.9156 21.0747 19.3905C20.8833 19.8814 20.6282 20.298 20.2129 20.713C19.798 21.1284 19.382 21.3841 18.8911 21.5748C18.416 21.7595 17.8728 21.8853 17.0779 21.9217C16.2815 21.958 16.0278 21.9668 13.9998 21.9668C11.9721 21.9668 11.7177 21.958 10.9213 21.9217C10.1265 21.8853 9.58381 21.7595 9.10874 21.5748C8.61795 21.3841 8.20137 21.1284 7.7865 20.713C7.37132 20.298 7.11621 19.8814 6.92534 19.3903C6.74085 18.9156 6.615 18.373 6.57844 17.5781C6.54236 16.7816 6.53333 16.5279 6.53333 14.5001C6.53333 12.4722 6.54267 12.2176 6.57829 11.4211C6.61407 10.6265 6.74007 10.0838 6.92518 9.60889C7.11652 9.11795 7.37163 8.70137 7.78697 8.28635C8.20199 7.87116 8.61858 7.61605 9.10967 7.42534C9.58443 7.24069 10.127 7.11484 10.9219 7.07844Z" fill="#144FA7"/>
<path fill-rule="evenodd" clip-rule="evenodd" d="M13.3307 8.37894C13.4608 8.37874 13.6007 8.3788 13.7517 8.37887L14.0006 8.37894C15.9942 8.37894 16.2305 8.3861 17.0178 8.42188C17.7458 8.45516 18.1409 8.57681 18.4041 8.67901C18.7525 8.81435 19.001 8.97613 19.2621 9.23746C19.5235 9.4988 19.6853 9.74769 19.8209 10.0961C19.9231 10.359 20.0449 10.7541 20.078 11.4822C20.1138 12.2693 20.1216 12.5057 20.1216 14.4984C20.1216 16.4911 20.1138 16.7275 20.078 17.5147C20.0447 18.2427 19.9231 18.6378 19.8209 18.9007C19.6856 19.2491 19.5235 19.4972 19.2621 19.7584C19.0008 20.0198 18.7527 20.1815 18.4041 20.3169C18.1412 20.4195 17.7458 20.5409 17.0178 20.5742C16.2306 20.6099 15.9942 20.6177 14.0006 20.6177C12.0068 20.6177 11.7705 20.6099 10.9834 20.5742C10.2554 20.5406 9.86026 20.4189 9.5969 20.3167C9.24845 20.1814 8.99956 20.0196 8.73823 19.7583C8.47689 19.4969 8.31511 19.2487 8.17946 18.9001C8.07726 18.6372 7.95546 18.242 7.92233 17.514C7.88655 16.7269 7.87939 16.4905 7.87939 14.4965C7.87939 12.5026 7.88655 12.2674 7.92233 11.4803C7.95562 10.7523 8.07726 10.3572 8.17946 10.094C8.3148 9.74551 8.47689 9.49662 8.73823 9.23528C8.99956 8.97395 9.24845 8.81217 9.5969 8.67652C9.8601 8.57386 10.2554 8.45252 10.9834 8.41908C11.6722 8.38796 11.9391 8.37863 13.3307 8.37708V8.37894ZM17.9863 9.61873C17.4916 9.61873 17.0902 10.0196 17.0902 10.5144C17.0902 11.0091 17.4916 11.4104 17.9863 11.4104C18.4809 11.4104 18.8823 11.0091 18.8823 10.5144C18.8823 10.0198 18.4809 9.61842 17.9863 9.61842V9.61873ZM10.1661 14.5001C10.1661 12.3826 11.8829 10.6657 14.0004 10.6656C16.118 10.6656 17.8344 12.3825 17.8344 14.5001C17.8344 16.6177 16.1182 18.3338 14.0006 18.3338C11.883 18.3338 10.1661 16.6177 10.1661 14.5001Z" fill="#144FA7"/>
<path d="M14.0006 12.0111C15.3751 12.0111 16.4895 13.1254 16.4895 14.5C16.4895 15.8745 15.3751 16.9889 14.0006 16.9889C12.626 16.9889 11.5117 15.8745 11.5117 14.5C11.5117 13.1254 12.626 12.0111 14.0006 12.0111V12.0111Z" fill="#144FA7"/>
</svg>
