<svg width="85" height="87" viewBox="0 0 85 87" fill="none" xmlns="http://www.w3.org/2000/svg">
<path d="M34.6029 12C34.8995 12 35.0477 12.1344 35.0477 12.4027V32.4787C35.0477 32.9263 35.2452 33.1501 35.6405 33.1501C35.9861 33.1501 36.1591 32.9263 36.1591 32.4787V12.4027C36.1591 12.1344 36.3069 12 36.6035 12H41.5673C41.8635 12 42.0116 12.1344 42.0116 12.4027V32.4787C42.0116 32.9263 41.9623 33.4297 41.8635 33.9893C41.7648 34.5488 41.4681 34.9852 40.9744 35.2985C40.8756 35.3434 40.8263 35.4104 40.8263 35.4998C40.8263 35.5896 40.8756 35.6566 40.9744 35.7016C41.5673 36.0148 41.8884 36.5182 41.9374 37.2121C41.9867 37.906 42.0116 38.3649 42.0116 38.5887V58.4377C42.0116 58.706 41.8635 58.8404 41.5673 58.8404H36.6035C36.3069 58.8404 36.1591 58.706 36.1591 58.4377V38.5213C36.1591 38.0737 35.9861 37.8499 35.6405 37.8499C35.2452 37.8499 35.0477 38.0737 35.0477 38.5213V42.6843V58.4377C35.0477 58.706 34.8995 58.8404 34.6029 58.8404H27.9447C27.6485 58.8404 27.5 58.706 27.5 58.4377V12.4027C27.5 12.1344 27.6485 12 27.9447 12H34.6029ZM50.9431 12C51.3381 12 51.536 12.1564 51.536 12.4701V30.1956V32.143C51.536 32.7695 51.7335 33.0828 52.1285 33.0828C52.4745 33.0828 52.6475 32.7695 52.6475 32.143V31.2028V12.4701C52.6475 12.1564 52.8446 12 53.24 12H57.759H58.0556C58.3515 12 58.5 12.1564 58.5 12.4701V35.2985C58.5 36.0148 58.2283 36.6189 57.6851 37.1114C57.1417 37.6036 56.4745 37.8499 55.6846 37.8499H55.2398C55.0921 37.8499 55.0178 37.8948 55.0178 37.9842C55.0178 38.253 55.0178 38.8907 55.0178 39.8979C55.0178 40.9051 55.0178 42.0911 55.0178 43.4565C55.0178 44.8218 55.0178 46.2987 55.0178 47.8879C55.0178 49.477 55.0178 50.9876 55.0178 52.4199C55.0178 53.8522 55.0178 55.1282 55.0178 56.2472C55.0178 57.3663 55.0178 58.1497 55.0178 58.5973C55.0178 58.8656 54.8697 59 54.5735 59H49.6097C49.3134 59 49.1653 58.8656 49.1653 58.5973C49.1653 58.1497 49.1653 57.3663 49.1653 56.2472C49.1653 55.1282 49.1653 53.8522 49.1653 52.4199C49.1653 50.9876 49.1653 49.4882 49.1653 47.9215C49.1653 46.3548 49.1653 44.8888 49.1653 43.5235C49.1653 42.1585 49.1653 40.9721 49.1653 39.9649C49.1653 38.9577 49.1653 38.32 49.1653 38.0512C49.1653 37.9172 49.0915 37.8499 48.9429 37.8499H48.4982C47.7082 37.8499 47.0415 37.6036 46.4984 37.1114C45.9549 36.6189 45.6831 36.0148 45.6831 35.2985V12.4701C45.6831 12.1564 45.8313 12 46.1279 12H50.9431Z" fill="url(#paint0_linear_177_225)"/>
<path fill-rule="evenodd" clip-rule="evenodd" d="M66.5895 5.00006C69.8525 5.00006 72.5 7.68834 72.5 10.9996C72.5 14.3124 69.8525 17.0003 66.5895 17.0003C64.0175 17.0003 61.8277 15.3302 61.0164 13.0005H66.5895C67.6778 13.0005 68.5599 12.1045 68.5599 10.9996C68.5599 9.89624 67.6778 9.00027 66.5895 9.00027H18.4105C17.3226 9.00027 16.4401 9.89624 16.4401 10.9996C16.4401 12.1045 17.3226 13.0005 18.4105 13.0005H23.984C23.1719 15.3302 20.9821 17.0003 18.4105 17.0003C15.1479 17.0003 12.5 14.3124 12.5 10.9996C12.5 7.68834 15.1479 5.00006 18.4105 5.00006H66.5895ZM56.2902 64.9992H60.23V60.9997H24.7711V64.9992H56.2902ZM48.41 65.9998H32.6499V70H52.3501V65.9998H48.41ZM48.41 4.00021H52.3501V0H32.6499V4.00021H48.41Z" fill="url(#paint1_linear_177_225)"/>
<path d="M35 58C31 58 27.5 58 27.5 58" stroke="#EAB94F" stroke-width="2" stroke-linecap="square"/>
<line x1="27.9" y1="12.4" x2="27.9" y2="57.6" stroke="#EAB94F" stroke-width="0.8" stroke-linecap="round"/>
<line x1="29.9" y1="12.4" x2="29.9" y2="57.6" stroke="#EAB94F" stroke-width="0.8" stroke-linecap="round"/>
<line x1="31.9" y1="12.4" x2="31.9" y2="57.6" stroke="#EAB94F" stroke-width="0.8" stroke-linecap="round"/>
<line x1="33.9" y1="12.4" x2="33.9" y2="57.6" stroke="#EAB94F" stroke-width="0.8" stroke-linecap="round"/>
<path d="M35 13C31 13 27.5 13 27.5 13" stroke="#EAB94F" stroke-width="2" stroke-linecap="square"/>
<path d="M3.55039 83.0359L2.24159 84.3895V86.8342H0V77.1658H2.24159V81.6824L6.55784 77.1658H9.06396L5.02629 81.4751L9.30058 86.8342H6.66913L3.55039 83.0359ZM16.2899 84.7623H11.7649L10.9018 86.8342H8.59054L12.9345 77.1658H15.1623L19.5201 86.8342H17.1532L16.2899 84.7623ZM15.5798 83.0634L14.0344 79.362L12.489 83.0634H15.5798ZM28.4308 85.011V86.8342H19.91V85.384L25.2564 78.989H20.0214V77.1658H28.2219V78.616L22.8895 85.011H28.4308ZM38.4973 83.4088V86.8342H36.2416V83.3813L32.4687 77.1658H34.8633L37.4669 81.4614L40.0706 77.1658H42.2843L38.4973 83.4088ZM47.4218 87C46.0295 87 44.9459 86.6178 44.1708 85.8535C43.3958 85.0894 43.0082 83.9982 43.0082 82.58V77.1658H45.2638V82.4972C45.2638 84.2284 45.9877 85.0939 47.4357 85.0939C48.1412 85.0939 48.6796 84.8844 49.0508 84.4654C49.4221 84.0465 49.6078 83.3905 49.6078 82.4972V77.1658H51.8353V82.58C51.8353 83.9982 51.4479 85.0894 50.6728 85.8535C49.8978 86.6178 48.8142 87 47.4218 87ZM60.2728 86.8342L58.3932 84.1408H58.2817H56.3187V86.8342H54.0631V77.1658H58.2817C59.145 77.1658 59.8945 77.3086 60.5303 77.594C61.1661 77.8794 61.6559 78.2846 61.9992 78.8095C62.3426 79.3343 62.5144 79.9558 62.5144 80.6741C62.5144 81.3923 62.3403 82.0115 61.9922 82.5318C61.6441 83.052 61.15 83.4502 60.5094 83.7266L62.6954 86.8342H60.2728ZM60.231 80.6741C60.231 80.1308 60.0546 79.7141 59.702 79.424C59.3491 79.1341 58.8341 78.989 58.1566 78.989H56.3187V82.3591H58.1566C58.8341 82.3591 59.3491 82.2117 59.702 81.9171C60.0546 81.6225 60.231 81.2082 60.231 80.6741ZM64.2964 77.1658H66.5521V86.8342H64.2964V77.1658ZM72.0655 87C71.295 87 70.5503 86.8964 69.8309 86.6892C69.1116 86.4819 68.5337 86.2127 68.0975 85.8812L68.8632 84.196C69.281 84.4999 69.7775 84.7441 70.353 84.9281C70.9285 85.1124 71.5039 85.2045 72.0795 85.2045C72.7199 85.2045 73.1933 85.1101 73.4996 84.9213C73.8059 84.7326 73.959 84.4816 73.959 84.1685C73.959 83.9383 73.8686 83.7473 73.6876 83.5953C73.5066 83.4434 73.2746 83.3213 72.9914 83.2292C72.7083 83.1371 72.3254 83.0359 71.8427 82.9254C71.1002 82.7505 70.4922 82.5755 70.0189 82.4005C69.5455 82.2257 69.1393 81.9448 68.8005 81.558C68.4617 81.1713 68.2923 80.6557 68.2923 80.011C68.2923 79.4494 68.4456 78.9406 68.7519 78.4849C69.0582 78.029 69.5199 77.6676 70.1372 77.4005C70.7544 77.1336 71.5087 77 72.3997 77C73.0216 77 73.6295 77.0737 74.2235 77.221C74.8177 77.3683 75.3375 77.5802 75.783 77.8564L75.0868 79.5553C74.1865 79.0489 73.2862 78.7957 72.3858 78.7957C71.7546 78.7957 71.2882 78.8969 70.9865 79.0994C70.6849 79.3021 70.5339 79.569 70.5339 79.9006C70.5339 80.232 70.7081 80.4784 71.0562 80.6395C71.4042 80.8007 71.9356 80.9595 72.6504 81.1161C73.3929 81.2909 74.0008 81.4659 74.4742 81.6409C74.9476 81.8158 75.3536 82.0921 75.6924 82.4696C76.0312 82.8472 76.2006 83.3583 76.2006 84.0027C76.2006 84.5553 76.0452 85.0594 75.7342 85.5151C75.4233 85.971 74.9569 86.3323 74.335 86.5995C73.7131 86.8664 72.9567 87 72.0655 87ZM79.6256 78.989H76.5069V77.1658H85V78.989H81.8813V86.8342H79.6256V78.989Z" fill="#202020"/>
<defs>
<linearGradient id="paint0_linear_177_225" x1="28.5417" y1="12.1374" x2="54.1538" y2="59.7871" gradientUnits="userSpaceOnUse">
<stop stop-color="#B8913C"/>
<stop offset="0.493562" stop-color="#ECBB50"/>
<stop offset="1" stop-color="#B8913C"/>
</linearGradient>
<linearGradient id="paint1_linear_177_225" x1="12.5834" y1="-2.77776" x2="48.8861" y2="80.7573" gradientUnits="userSpaceOnUse">
<stop stop-color="#B8913C"/>
<stop offset="0.493562" stop-color="#ECBB50"/>
<stop offset="1" stop-color="#B8913C"/>
</linearGradient>
</defs>
</svg>
