<svg width="28" height="29" viewBox="0 0 28 29" fill="none" xmlns="http://www.w3.org/2000/svg">
<path fill-rule="evenodd" clip-rule="evenodd" d="M28 14.5C28 22.232 21.732 28.5 14 28.5C6.26801 28.5 0 22.232 0 14.5C0 6.76801 6.26801 0.5 14 0.5C21.732 0.5 28 6.76801 28 14.5ZM9.37506 13.2175C7.97262 13.8299 6.53163 14.459 5.21398 15.1848L5.21389 15.1849C4.52586 15.6887 5.44039 16.045 6.29828 16.3792C6.43467 16.4323 6.56963 16.4849 6.69649 16.5374C6.80205 16.5699 6.90941 16.6041 7.0182 16.6387C7.97233 16.9427 9.03627 17.2817 9.96257 16.7718C11.4842 15.8977 12.9202 14.8871 14.3552 13.8773C14.8253 13.5464 15.2953 13.2157 15.7681 12.8898C15.7903 12.8756 15.8153 12.8594 15.8426 12.8417C16.2454 12.5806 17.1514 11.9934 16.8163 12.8025C16.0239 13.6691 15.1751 14.4363 14.3217 15.2076C13.7465 15.7274 13.1693 16.2491 12.6058 16.8044C12.115 17.2032 11.6054 18.0051 12.1549 18.5635C13.4207 19.4496 14.7062 20.3143 15.991 21.1784C16.4091 21.4596 16.8272 21.7408 17.2444 22.0226C17.9515 22.5871 19.0566 22.1305 19.2121 21.2483C19.2812 20.8425 19.3507 20.4366 19.4201 20.0308C19.8037 17.7881 20.1874 15.5446 20.5264 13.2945C20.5724 12.9416 20.6246 12.5887 20.6769 12.2356C20.8035 11.3798 20.9303 10.5229 20.9699 9.66246C20.8678 8.80383 19.8268 8.99262 19.2473 9.18569C16.2693 10.3189 13.321 11.5361 10.3844 12.7747C10.0518 12.9221 9.71454 13.0693 9.37506 13.2175Z" fill="#144FA7"/>
</svg>
