<svg width="28" height="29" viewBox="0 0 28 29" fill="none" xmlns="http://www.w3.org/2000/svg">
<path fill-rule="evenodd" clip-rule="evenodd" d="M0 14.5C0 22.232 6.26801 28.5 14 28.5C21.732 28.5 28 22.232 28 14.5C28 6.76801 21.732 0.5 14 0.5C6.26801 0.5 0 6.76801 0 14.5ZM22.7862 13.9642C22.7844 18.5532 19.0514 22.2871 14.4615 22.289H14.458C13.0647 22.2885 11.6957 21.9389 10.4798 21.2757L6.06667 22.4333L7.24769 18.1195C6.51918 16.857 6.13584 15.4249 6.13646 13.9576C6.13829 9.36766 9.87281 5.63333 14.4614 5.63333C16.6884 5.63429 18.7786 6.50126 20.3503 8.07482C21.922 9.64831 22.7871 11.7399 22.7862 13.9642Z" fill="#144FA7"/>
<path fill-rule="evenodd" clip-rule="evenodd" d="M8.06542 20.4556L10.6842 19.7686L10.9369 19.9186C11.9992 20.549 13.217 20.8826 14.4586 20.883H14.4614C18.2751 20.883 21.3791 17.779 21.3806 13.9637C21.3813 12.1149 20.6623 10.3765 19.3559 9.06858C18.0496 7.76069 16.3123 7.04007 14.4642 7.03943C10.6475 7.03943 7.54351 10.1432 7.54199 13.9581C7.54146 15.2656 7.90727 16.5388 8.5999 17.6405L8.76442 17.9023L8.06542 20.4556ZM18.3705 15.7565C18.5156 15.8267 18.6136 15.874 18.6554 15.9438C18.7074 16.0306 18.7074 16.447 18.5342 16.933C18.3608 17.4189 17.5298 17.8623 17.1301 17.922C16.7717 17.9756 16.3182 17.998 15.8199 17.8396C15.5178 17.7438 15.1304 17.6158 14.6341 17.4014C12.6841 16.5594 11.3662 14.6694 11.1172 14.3122C11.0997 14.2872 11.0875 14.2697 11.0807 14.2606L11.079 14.2583C10.9689 14.1115 10.2314 13.1273 10.2314 12.1088C10.2314 11.1506 10.702 10.6484 10.9187 10.4173C10.9335 10.4014 10.9471 10.3869 10.9594 10.3735C11.15 10.1653 11.3754 10.1132 11.5141 10.1132C11.6527 10.1132 11.7915 10.1145 11.9127 10.1206C11.9277 10.1213 11.9432 10.1212 11.9593 10.1211C12.0805 10.1204 12.2317 10.1195 12.3807 10.4776C12.4381 10.6154 12.522 10.8197 12.6105 11.0352C12.7895 11.471 12.9873 11.9525 13.0221 12.0221C13.0741 12.1263 13.1087 12.2477 13.0394 12.3866C13.029 12.4074 13.0194 12.427 13.0102 12.4458C12.9581 12.5521 12.9198 12.6303 12.8314 12.7335C12.7967 12.7741 12.7607 12.8179 12.7248 12.8616C12.6533 12.9488 12.5817 13.0359 12.5194 13.098C12.4153 13.2017 12.3069 13.3142 12.4282 13.5225C12.5495 13.7307 12.967 14.4119 13.5854 14.9635C14.2501 15.5564 14.8278 15.807 15.1207 15.934C15.1778 15.9588 15.2242 15.9789 15.2581 15.9959C15.4661 16.1 15.5874 16.0826 15.7088 15.9438C15.8301 15.805 16.2288 15.3364 16.3674 15.1282C16.506 14.92 16.6448 14.9547 16.8354 15.0241C17.0261 15.0936 18.0488 15.5967 18.2568 15.7009C18.2974 15.7212 18.3354 15.7395 18.3705 15.7565Z" fill="#144FA7"/>
</svg>
